<svg width="2000" height="1113" viewBox="0 0 2000 1113" fill="none" xmlns="http://www.w3.org/2000/svg">
<path d="M1393.2 616.168C1437.11 616.168 1472.45 629.341 1499.24 655.688C1526.47 682.034 1540.08 721.115 1540.08 772.93V975.798H1437.33V788.738C1437.33 760.635 1431.18 739.777 1418.88 726.164C1406.59 712.113 1388.8 705.087 1365.53 705.087C1339.62 705.087 1318.99 713.211 1303.62 729.458C1288.25 745.266 1280.56 768.978 1280.56 800.594V975.798H1177.81V621.437H1275.95V662.933C1289.57 648.003 1306.47 636.586 1326.67 628.682C1346.87 620.339 1369.04 616.168 1393.2 616.168Z" fill="white"/>
<path d="M2000 487.07V975.798H1901.86V934.961C1876.39 965.699 1839.51 981.067 1791.2 981.067C1757.83 981.067 1727.53 973.602 1700.31 958.673C1673.52 943.743 1652.45 922.446 1637.08 894.782C1621.71 867.119 1614.02 835.064 1614.02 798.617C1614.02 762.171 1621.71 730.116 1637.08 702.453C1652.45 674.789 1673.52 653.492 1700.31 638.562C1727.53 623.633 1757.83 616.168 1791.2 616.168C1836.43 616.168 1871.78 630.439 1897.25 658.981V487.07H2000ZM1808.99 896.758C1834.9 896.758 1856.41 887.976 1873.54 870.412C1890.66 852.408 1899.22 828.477 1899.22 798.617C1899.22 768.758 1890.66 745.046 1873.54 727.482C1856.41 709.478 1834.9 700.477 1808.99 700.477C1782.64 700.477 1760.9 709.478 1743.78 727.482C1726.65 745.046 1718.09 768.758 1718.09 798.617C1718.09 828.477 1726.65 852.408 1743.78 870.412C1760.9 887.976 1782.64 896.758 1808.99 896.758Z" fill="white"/>
<path d="M845.48 157.933V353.556C845.48 405.81 831.209 446.208 802.667 474.75C774.125 503.292 733.507 517.563 680.814 517.563C655.346 517.563 632.732 513.611 612.972 505.707C593.651 497.803 577.404 485.069 564.231 467.505C551.058 485.069 534.811 497.803 515.49 505.707C496.169 513.611 473.335 517.563 446.989 517.563C393.857 517.563 353.239 503.292 325.136 474.75C297.033 446.208 282.981 405.81 282.981 353.556V157.933H385.733V345.652C385.733 375.072 390.783 396.808 400.882 410.86C410.982 424.472 426.79 431.278 448.306 431.278C470.261 431.278 486.509 424.253 497.047 410.201C507.586 396.15 512.855 374.633 512.855 345.652V157.933H615.607V345.652C615.607 374.633 620.876 396.15 631.415 410.201C641.953 424.253 658.2 431.278 680.156 431.278C701.672 431.278 717.48 424.472 727.579 410.86C737.679 396.808 742.729 375.072 742.729 345.652V157.933H845.48Z" fill="white"/>
<path d="M850.359 973.993V778.37C850.359 726.116 836.088 685.718 807.546 657.176C779.004 628.633 738.386 614.362 685.693 614.362C660.225 614.362 637.611 618.314 617.851 626.218C598.53 634.122 582.283 646.856 569.11 664.421C555.936 646.856 539.69 634.122 520.369 626.218C501.048 618.314 478.214 614.362 451.868 614.362C398.735 614.362 358.118 628.633 330.015 657.176C301.912 685.718 287.86 726.116 287.86 778.37L287.86 973.993H390.612L390.612 786.274C390.612 756.853 395.662 735.117 405.761 721.066C415.861 707.454 431.669 700.647 453.185 700.647C475.14 700.647 491.387 707.673 501.926 721.725C512.465 735.776 517.734 757.292 517.734 786.274V973.993H620.486V786.274C620.486 757.292 625.755 735.776 636.293 721.725C646.832 707.673 663.079 700.647 685.035 700.647C706.551 700.647 722.359 707.454 732.458 721.066C742.558 735.117 747.608 756.853 747.608 786.274V973.993L850.359 973.993Z" fill="white"/>
<path d="M215.383 490.29C205.284 497.755 192.769 503.463 177.839 507.415C163.349 510.928 148.199 512.684 132.391 512.684C89.7978 512.684 57.0842 501.926 34.2505 480.41C11.4168 458.893 0 427.278 0 385.562V74.6729H102.752V160.958H190.354V239.998H102.752V384.245C102.752 399.175 106.484 410.811 113.949 419.154C121.414 427.058 132.172 431.01 146.223 431.01C162.031 431.01 176.083 426.619 188.378 417.837L215.383 490.29Z" fill="white"/>
<path d="M1394.56 131.733C1438.47 131.733 1473.82 144.906 1500.61 171.253C1527.83 197.599 1541.44 236.68 1541.44 288.495V491.363H1438.69V304.303C1438.69 276.2 1432.54 255.342 1420.25 241.73C1407.95 227.678 1390.17 220.652 1366.9 220.652C1340.99 220.652 1320.35 228.776 1304.98 245.023C1289.61 260.831 1281.93 284.543 1281.93 316.159V491.363H1179.18V137.002H1277.32V178.498C1290.93 163.568 1307.84 152.151 1328.04 144.247C1348.24 135.904 1370.41 131.733 1394.56 131.733Z" fill="white"/>
<path d="M940.419 260.922C944.404 223.527 975.954 195.16 1013.56 195.16C1050.94 195.16 1082.38 223.194 1086.64 260.33L1113.31 492.778H915.713L940.419 260.922Z" fill="#FC9E4F"/>
<path d="M1086.48 73.1849C1086.48 113.604 1053.71 146.37 1013.29 146.37C972.874 146.37 940.108 113.604 940.108 73.1849C940.108 32.766 972.874 0 1013.29 0C1053.71 0 1086.48 32.766 1086.48 73.1849Z" fill="#FC9E4F"/>
<path d="M940.138 853.927C944.123 891.323 975.673 919.69 1013.28 919.69C1050.66 919.69 1082.1 891.655 1086.36 854.519L1113.03 622.071H915.432L940.138 853.927Z" fill="#FC9E4F"/>
<path d="M1086.48 1039.22C1086.48 998.806 1053.71 966.04 1013.29 966.04C972.874 966.04 940.108 998.806 940.108 1039.22C940.108 1079.64 972.874 1112.41 1013.29 1112.41C1053.71 1112.41 1086.48 1079.64 1086.48 1039.22Z" fill="#FC9E4F"/>
</svg>
